<svg height="409.6pt" viewBox="0 0 409.6 409.6" width="409.6pt" xmlns="http://www.w3.org/2000/svg"><path d="m307.199219 320.851562c-3.769531 0-6.824219-3.050781-6.824219-6.824218v-27.308594h-47.789062v27.308594c0 3.773437-3.054688 6.824218-6.824219 6.824218-3.773438 0-6.828125-3.050781-6.828125-6.824218v-34.132813c0-3.773437 3.054687-6.828125 6.828125-6.828125h61.4375c3.769531 0 6.828125 3.054688 6.828125 6.828125v34.132813c0 3.773437-3.058594 6.824218-6.828125 6.824218zm0 0"/><path d="m402.773438 409.601562h-252.585938c-3.769531 0-6.828125-3.054687-6.828125-6.828124v-33.886719c0-26.851563 24.925781-48.734375 55.6875-49.007813l15.3125-2.519531c3.730469-.660156 7.230469 1.898437 7.847656 5.621094.613281 3.71875-1.90625 7.230469-5.625 7.847656l-15.851562 2.613281c-.367188.058594-.738281.09375-1.109375.09375-23.492188 0-42.605469 15.859375-42.605469 35.351563v27.058593h238.933594v-27.058593c0-19.492188-19.113281-35.351563-42.609375-35.351563-.371094 0-.746094-.035156-1.109375-.09375l-16.300781-2.695312c-3.722657-.613282-6.238282-4.125-5.625-7.847656.613281-3.710938 4.09375-6.324219 7.851562-5.617188l15.761719 2.597656c30.757812.273438 55.683593 22.152344 55.683593 49.007813v33.886719c0 3.773437-3.058593 6.828124-6.828124 6.828124zm0 0"/><path d="m313.117188 286.71875h-73.273438c-19.324219 0-35.042969-15.71875-35.042969-35.039062v-60.53125c0-4.410157.421875-8.820313 1.257813-13.117188.722656-3.699219 4.300781-6.105469 8.003906-5.390625 3.699219.71875 6.117188 4.300781 5.394531 8.003906-.664062 3.433594-1.003906 6.96875-1.003906 10.5v60.535157c0 11.792968 9.59375 21.386718 21.386719 21.386718h73.277344c11.792968 0 21.386718-9.59375 21.386718-21.386718v-60.53125c0-30.117188-24.5-54.613282-54.613281-54.613282h-6.824219c-5.15625 0-10.25.710938-15.140625 2.125-3.625 1.011719-7.40625-1.054687-8.449219-4.667968-1.042968-3.625 1.046876-7.40625 4.667969-8.453126 6.121094-1.765624 12.488281-2.660156 18.921875-2.660156h6.828125c37.644531 0 68.265625 30.628906 68.265625 68.269532v60.53125c0 19.320312-15.71875 35.039062-35.042968 35.039062zm0 0"/><path d="m218.453125 354.988281c-1.195313 0-2.390625-.316406-3.460937-.941406-2.085938-1.226563-3.367188-3.46875-3.367188-5.886719v-34.132812c0-3.773438 3.058594-6.828125 6.828125-6.828125h61.441406c3.109375 0 5.824219 2.101562 6.609375 5.113281.777344 3.015625-.578125 6.171875-3.292968 7.679688l-61.441407 34.132812c-1.03125.574219-2.175781.863281-3.316406.863281zm6.828125-34.136719v15.707032l28.269531-15.707032zm0 0"/><path d="m334.507812 354.988281c-1.140624 0-2.285156-.289062-3.316406-.863281l-61.441406-34.132812c-2.714844-1.507813-4.074219-4.664063-3.292969-7.679688.78125-3.011719 3.5-5.113281 6.609375-5.113281h61.441406c3.769532 0 6.824219 3.054687 6.824219 6.828125v34.132812c0 2.417969-1.277343 4.660156-3.363281 5.886719-1.070312.625-2.265625.941406-3.460938.941406zm-35.097656-34.136719 28.269532 15.707032v-15.707032zm0 0"/><path d="m34.132812 218.453125c-.691406 0-1.394531-.105469-2.082031-.324219-2.828125-.910156-4.742187-3.535156-4.742187-6.503906v-27.304688h-4.214844c-12.734375 0-23.09375-10.359374-23.09375-23.09375v-138.132812c0-12.734375 10.359375-23.09375 23.09375-23.09375h213.226562c12.734376 0 23.09375 10.359375 23.09375 23.09375v138.132812c0 12.734376-10.359374 23.09375-23.09375 23.09375h-174.292968l-22.335938 31.273438c-1.308594 1.828125-3.394531 2.859375-5.558594 2.859375zm-11.039062-204.800781c-5.207031 0-9.441406 4.234375-9.441406 9.441406v138.132812c0 5.207032 4.234375 9.441407 9.441406 9.441407h11.039062c3.769532 0 6.828126 3.050781 6.828126 6.824219v12.835937l11.996093-16.800781c1.28125-1.792969 3.351563-2.859375 5.554688-2.859375h177.808593c5.207032 0 9.441407-4.234375 9.441407-9.441407v-138.132812c0-5.207031-4.234375-9.441406-9.441407-9.441406zm0 0"/><path d="m129.707031 150.1875c-33.878906 0-61.441406-27.558594-61.441406-61.441406 0-33.878906 27.5625-61.4375 61.441406-61.4375 33.878907 0 61.441407 27.558594 61.441407 61.4375 0 33.882812-27.5625 61.441406-61.441407 61.441406zm0-109.226562c-26.347656 0-47.785156 21.4375-47.785156 47.785156s21.4375 47.789062 47.785156 47.789062c26.347657 0 47.785157-21.441406 47.785157-47.789062s-21.4375-47.785156-47.785157-47.785156zm0 0"/><path d="m110.023438 56.90625c0-.566406.375-.941406.9375-.941406h23.746093c13.511719 0 19.898438 6.753906 19.898438 16.988281 0 7.226563-3.382813 11.351563-7.414063 13.511719v.1875c3.9375 1.507812 8.539063 6.574218 8.539063 14.359375 0 12.675781-7.976563 18.773437-21.964844 18.773437h-22.804687c-.5625 0-.9375-.375-.9375-.941406zm24.402343 25.621094c5.632813 0 9.101563-3.378906 9.101563-8.355469 0-5.066406-3.46875-8.445313-9.101563-8.445313h-12.765625c-.378906 0-.5625.183594-.5625.558594v15.679688c0 .375.183594.5625.5625.5625zm-12.765625 27.5h13.328125c6.195313 0 9.664063-3.566406 9.664063-8.921875 0-5.253907-3.46875-8.820313-9.664063-8.820313h-13.328125c-.378906 0-.5625.1875-.5625.566406v16.605469c0 .382813.183594.570313.5625.570313zm0 0"/><path d="m126.292969 61.441406c-1.886719 0-3.414063-1.527344-3.414063-3.414062v-6.828125c0-1.886719 1.527344-3.414063 3.414063-3.414063s3.414062 1.527344 3.414062 3.414063v6.828125c0 1.886718-1.527343 3.414062-3.414062 3.414062zm0 0"/><path d="m126.292969 129.707031c-1.886719 0-3.414063-1.527343-3.414063-3.414062v-6.828125c0-1.882813 1.527344-3.410156 3.414063-3.410156s3.414062 1.527343 3.414062 3.410156v6.828125c0 1.886719-1.527343 3.414062-3.414062 3.414062zm0 0"/></svg>